<svg id="visual" viewBox="0 0 2000 1000" width="2000" height="1000" xmlns="http://www.w3.org/2000/svg" xmlns:xlink="http://www.w3.org/1999/xlink" version="1.1"><g stroke-width="1" stroke-linejoin="bevel"><path d="M965.1 516.4L1029.9 542.4L1062.9 406.6Z" fill="#4faa6d" stroke="#4faa6d"></path><path d="M1062.9 406.6L978.1 377.6L965.1 516.4Z" fill="#0c201c" stroke="#0c201c"></path><path d="M1029.9 542.4L1205.8 435.6L1062.9 406.6Z" fill="#195744" stroke="#195744"></path><path d="M1018.9 177.9L910.1 282.7L978.1 377.6Z" fill="#2e805b" stroke="#2e805b"></path><path d="M1130.9 254.7L978.1 377.6L1062.9 406.6Z" fill="#195744" stroke="#195744"></path><path d="M978.1 377.6L792.2 339.7L965.1 516.4Z" fill="#195744" stroke="#195744"></path><path d="M1029.9 542.4L1209.8 593.4L1205.8 435.6Z" fill="#195744" stroke="#195744"></path><path d="M771.2 621.4L939.1 679.3L965.1 516.4Z" fill="#195744" stroke="#195744"></path><path d="M965.1 516.4L939.1 679.3L1029.9 542.4Z" fill="#226b50" stroke="#226b50"></path><path d="M1029.9 542.4L1186.8 666.3L1209.8 593.4Z" fill="#4faa6d" stroke="#4faa6d"></path><path d="M1205.8 435.6L1130.9 254.7L1062.9 406.6Z" fill="#134438" stroke="#134438"></path><path d="M1029.9 735.3L1186.8 666.3L1029.9 542.4Z" fill="#000d0b" stroke="#000d0b"></path><path d="M910.1 282.7L792.2 339.7L978.1 377.6Z" fill="#7ad57a" stroke="#7ad57a"></path><path d="M939.1 679.3L1029.9 735.3L1029.9 542.4Z" fill="#0f312a" stroke="#0f312a"></path><path d="M1130.9 254.7L1018.9 177.9L978.1 377.6Z" fill="#4faa6d" stroke="#4faa6d"></path><path d="M910.1 282.7L896.1 199.9L792.2 339.7Z" fill="#195744" stroke="#195744"></path><path d="M716.2 481.6L771.2 621.4L965.1 516.4Z" fill="#0c201c" stroke="#0c201c"></path><path d="M965.1 908.1L1026.9 875.1L1029.9 735.3Z" fill="#7ad57a" stroke="#7ad57a"></path><path d="M1018.9 177.9L896.1 199.9L910.1 282.7Z" fill="#226b50" stroke="#226b50"></path><path d="M792.2 339.7L716.2 481.6L965.1 516.4Z" fill="#63bf74" stroke="#63bf74"></path><path d="M1349.6 311.7L1256.8 227.7L1205.8 435.6Z" fill="#63bf74" stroke="#63bf74"></path><path d="M1205.8 435.6L1256.8 227.7L1130.9 254.7Z" fill="#195744" stroke="#195744"></path><path d="M1130.9 254.7L1228.8 0L1018.9 177.9Z" fill="#0c201c" stroke="#0c201c"></path><path d="M1433.6 478.6L1349.6 311.7L1205.8 435.6Z" fill="#195744" stroke="#195744"></path><path d="M1357.6 625.4L1205.8 435.6L1209.8 593.4Z" fill="#4faa6d" stroke="#4faa6d"></path><path d="M1337.6 665.3L1209.8 593.4L1186.8 666.3Z" fill="#4faa6d" stroke="#4faa6d"></path><path d="M1337.6 665.3L1357.6 625.4L1209.8 593.4Z" fill="#3d9564" stroke="#3d9564"></path><path d="M1216.8 879.1L1337.6 665.3L1186.8 666.3Z" fill="#2e805b" stroke="#2e805b"></path><path d="M639.4 593.4L720.2 716.3L771.2 621.4Z" fill="#0f312a" stroke="#0f312a"></path><path d="M771.2 621.4L720.2 716.3L939.1 679.3Z" fill="#195744" stroke="#195744"></path><path d="M606.4 298.7L636.4 403.6L792.2 339.7Z" fill="#63bf74" stroke="#63bf74"></path><path d="M792.2 339.7L636.4 403.6L716.2 481.6Z" fill="#4faa6d" stroke="#4faa6d"></path><path d="M716.2 481.6L639.4 593.4L771.2 621.4Z" fill="#0c201c" stroke="#0c201c"></path><path d="M636.4 403.6L639.4 593.4L716.2 481.6Z" fill="#134438" stroke="#134438"></path><path d="M965.1 908.1L1029.9 735.3L939.1 679.3Z" fill="#0f312a" stroke="#0f312a"></path><path d="M1029.9 735.3L1216.8 879.1L1186.8 666.3Z" fill="#134438" stroke="#134438"></path><path d="M1506.5 583.4L1433.6 478.6L1357.6 625.4Z" fill="#4faa6d" stroke="#4faa6d"></path><path d="M1357.6 625.4L1433.6 478.6L1205.8 435.6Z" fill="#7ad57a" stroke="#7ad57a"></path><path d="M1391.6 140.9L1256.8 227.7L1349.6 311.7Z" fill="#0c201c" stroke="#0c201c"></path><path d="M1391.6 140.9L1286.8 119.9L1256.8 227.7Z" fill="#2e805b" stroke="#2e805b"></path><path d="M1256.8 227.7L1286.8 119.9L1130.9 254.7Z" fill="#0c201c" stroke="#0c201c"></path><path d="M928.1 0L783.2 99.9L896.1 199.9Z" fill="#3d9564" stroke="#3d9564"></path><path d="M928.1 0L896.1 199.9L1018.9 177.9Z" fill="#195744" stroke="#195744"></path><path d="M896.1 199.9L783.2 99.9L792.2 339.7Z" fill="#0c201c" stroke="#0c201c"></path><path d="M730.2 893.1L965.1 908.1L939.1 679.3Z" fill="#226b50" stroke="#226b50"></path><path d="M783.2 99.9L606.4 298.7L792.2 339.7Z" fill="#000d0b" stroke="#000d0b"></path><path d="M636.4 403.6L507.5 613.4L639.4 593.4Z" fill="#000d0b" stroke="#000d0b"></path><path d="M1082.9 1000L1216.8 879.1L1026.9 875.1Z" fill="#000d0b" stroke="#000d0b"></path><path d="M1026.9 875.1L1216.8 879.1L1029.9 735.3Z" fill="#3d9564" stroke="#3d9564"></path><path d="M1228.8 0L1043.9 0L1018.9 177.9Z" fill="#7ad57a" stroke="#7ad57a"></path><path d="M639.4 593.4L619.4 725.3L720.2 716.3Z" fill="#226b50" stroke="#226b50"></path><path d="M720.2 716.3L730.2 893.1L939.1 679.3Z" fill="#2e805b" stroke="#2e805b"></path><path d="M507.5 613.4L619.4 725.3L639.4 593.4Z" fill="#4faa6d" stroke="#4faa6d"></path><path d="M1043.9 0L928.1 0L1018.9 177.9Z" fill="#7ad57a" stroke="#7ad57a"></path><path d="M1522.5 200.9L1391.6 140.9L1349.6 311.7Z" fill="#0f312a" stroke="#0f312a"></path><path d="M1286.8 119.9L1228.8 0L1130.9 254.7Z" fill="#0f312a" stroke="#0f312a"></path><path d="M1505.5 772.3L1357.6 625.4L1337.6 665.3Z" fill="#000d0b" stroke="#000d0b"></path><path d="M1505.5 772.3L1506.5 583.4L1357.6 625.4Z" fill="#134438" stroke="#134438"></path><path d="M1433.6 478.6L1509.5 306.7L1349.6 311.7Z" fill="#4faa6d" stroke="#4faa6d"></path><path d="M1403.6 0L1228.8 0L1286.8 119.9Z" fill="#63bf74" stroke="#63bf74"></path><path d="M1582.5 430.6L1509.5 306.7L1433.6 478.6Z" fill="#63bf74" stroke="#63bf74"></path><path d="M619.4 725.3L730.2 893.1L720.2 716.3Z" fill="#63bf74" stroke="#63bf74"></path><path d="M423.5 433.6L507.5 613.4L636.4 403.6Z" fill="#7ad57a" stroke="#7ad57a"></path><path d="M622.4 1000L774.2 1000L730.2 893.1Z" fill="#63bf74" stroke="#63bf74"></path><path d="M965.1 908.1L1082.9 1000L1026.9 875.1Z" fill="#63bf74" stroke="#63bf74"></path><path d="M928.1 1000L1082.9 1000L965.1 908.1Z" fill="#195744" stroke="#195744"></path><path d="M774.2 1000L928.1 1000L965.1 908.1Z" fill="#3d9564" stroke="#3d9564"></path><path d="M928.1 0L715.2 0L783.2 99.9Z" fill="#226b50" stroke="#226b50"></path><path d="M783.2 99.9L561.4 139.9L606.4 298.7Z" fill="#2e805b" stroke="#2e805b"></path><path d="M1082.9 1000L1198.8 1000L1216.8 879.1Z" fill="#0f312a" stroke="#0f312a"></path><path d="M1410.6 895.1L1505.5 772.3L1337.6 665.3Z" fill="#226b50" stroke="#226b50"></path><path d="M1506.5 583.4L1582.5 430.6L1433.6 478.6Z" fill="#3d9564" stroke="#3d9564"></path><path d="M715.2 0L561.4 139.9L783.2 99.9Z" fill="#0c201c" stroke="#0c201c"></path><path d="M606.4 298.7L423.5 433.6L636.4 403.6Z" fill="#134438" stroke="#134438"></path><path d="M1646.3 320.7L1522.5 200.9L1509.5 306.7Z" fill="#63bf74" stroke="#63bf74"></path><path d="M1509.5 306.7L1522.5 200.9L1349.6 311.7Z" fill="#3d9564" stroke="#3d9564"></path><path d="M1391.6 140.9L1403.6 0L1286.8 119.9Z" fill="#7ad57a" stroke="#7ad57a"></path><path d="M1410.6 895.1L1337.6 665.3L1216.8 879.1Z" fill="#0c201c" stroke="#0c201c"></path><path d="M1506.5 583.4L1646.3 618.4L1582.5 430.6Z" fill="#3d9564" stroke="#3d9564"></path><path d="M1198.8 1000L1410.6 895.1L1216.8 879.1Z" fill="#134438" stroke="#134438"></path><path d="M598.4 915.1L730.2 893.1L619.4 725.3Z" fill="#2e805b" stroke="#2e805b"></path><path d="M730.2 893.1L774.2 1000L965.1 908.1Z" fill="#63bf74" stroke="#63bf74"></path><path d="M413.5 278.7L423.5 433.6L606.4 298.7Z" fill="#195744" stroke="#195744"></path><path d="M1522.5 200.9L1403.6 0L1391.6 140.9Z" fill="#195744" stroke="#195744"></path><path d="M499.5 877.1L598.4 915.1L619.4 725.3Z" fill="#226b50" stroke="#226b50"></path><path d="M466.5 756.3L619.4 725.3L507.5 613.4Z" fill="#0c201c" stroke="#0c201c"></path><path d="M358.7 614.4L466.5 756.3L507.5 613.4Z" fill="#000d0b" stroke="#000d0b"></path><path d="M715.2 0L602.4 0L561.4 139.9Z" fill="#63bf74" stroke="#63bf74"></path><path d="M561.4 139.9L413.5 278.7L606.4 298.7Z" fill="#0c201c" stroke="#0c201c"></path><path d="M443.5 132.9L413.5 278.7L561.4 139.9Z" fill="#0f312a" stroke="#0f312a"></path><path d="M1582.5 430.6L1646.3 320.7L1509.5 306.7Z" fill="#134438" stroke="#134438"></path><path d="M1522.5 200.9L1595.5 0L1403.6 0Z" fill="#134438" stroke="#134438"></path><path d="M1732.3 418.6L1646.3 320.7L1582.5 430.6Z" fill="#195744" stroke="#195744"></path><path d="M1665.3 713.3L1646.3 618.4L1505.5 772.3Z" fill="#2e805b" stroke="#2e805b"></path><path d="M1505.5 772.3L1646.3 618.4L1506.5 583.4Z" fill="#2e805b" stroke="#2e805b"></path><path d="M1410.6 895.1L1574.5 812.1L1505.5 772.3Z" fill="#226b50" stroke="#226b50"></path><path d="M466.5 756.3L499.5 877.1L619.4 725.3Z" fill="#2e805b" stroke="#2e805b"></path><path d="M598.4 915.1L622.4 1000L730.2 893.1Z" fill="#000d0b" stroke="#000d0b"></path><path d="M473.5 1000L622.4 1000L598.4 915.1Z" fill="#0c201c" stroke="#0c201c"></path><path d="M444.5 0L443.5 132.9L561.4 139.9Z" fill="#0f312a" stroke="#0f312a"></path><path d="M1198.8 1000L1428.6 1000L1410.6 895.1Z" fill="#7ad57a" stroke="#7ad57a"></path><path d="M1410.6 895.1L1521.5 1000L1574.5 812.1Z" fill="#63bf74" stroke="#63bf74"></path><path d="M423.5 433.6L358.7 614.4L507.5 613.4Z" fill="#3d9564" stroke="#3d9564"></path><path d="M272.7 879.1L473.5 1000L499.5 877.1Z" fill="#0f312a" stroke="#0f312a"></path><path d="M295.7 379.6L358.7 614.4L423.5 433.6Z" fill="#226b50" stroke="#226b50"></path><path d="M1647.3 883.1L1665.3 713.3L1574.5 812.1Z" fill="#134438" stroke="#134438"></path><path d="M1574.5 812.1L1665.3 713.3L1505.5 772.3Z" fill="#3d9564" stroke="#3d9564"></path><path d="M1646.3 618.4L1732.3 418.6L1582.5 430.6Z" fill="#63bf74" stroke="#63bf74"></path><path d="M1822.2 608.4L1732.3 418.6L1646.3 618.4Z" fill="#134438" stroke="#134438"></path><path d="M1646.3 320.7L1669.3 134.9L1522.5 200.9Z" fill="#3d9564" stroke="#3d9564"></path><path d="M1867.2 297.7L1669.3 134.9L1646.3 320.7Z" fill="#7ad57a" stroke="#7ad57a"></path><path d="M1428.6 1000L1521.5 1000L1410.6 895.1Z" fill="#000d0b" stroke="#000d0b"></path><path d="M279.7 343.7L295.7 379.6L413.5 278.7Z" fill="#134438" stroke="#134438"></path><path d="M413.5 278.7L295.7 379.6L423.5 433.6Z" fill="#3d9564" stroke="#3d9564"></path><path d="M1669.3 134.9L1595.5 0L1522.5 200.9Z" fill="#3d9564" stroke="#3d9564"></path><path d="M602.4 0L444.5 0L561.4 139.9Z" fill="#226b50" stroke="#226b50"></path><path d="M250.7 200.9L279.7 343.7L413.5 278.7Z" fill="#2e805b" stroke="#2e805b"></path><path d="M1521.5 1000L1647.3 883.1L1574.5 812.1Z" fill="#195744" stroke="#195744"></path><path d="M1665.3 713.3L1803.2 657.3L1646.3 618.4Z" fill="#000d0b" stroke="#000d0b"></path><path d="M250.7 200.9L413.5 278.7L443.5 132.9Z" fill="#0c201c" stroke="#0c201c"></path><path d="M175.8 598.4L270.7 714.3L358.7 614.4Z" fill="#134438" stroke="#134438"></path><path d="M272.7 879.1L499.5 877.1L466.5 756.3Z" fill="#195744" stroke="#195744"></path><path d="M499.5 877.1L473.5 1000L598.4 915.1Z" fill="#7ad57a" stroke="#7ad57a"></path><path d="M1793.2 0L1658.3 0L1669.3 134.9Z" fill="#195744" stroke="#195744"></path><path d="M1669.3 134.9L1658.3 0L1595.5 0Z" fill="#195744" stroke="#195744"></path><path d="M184.8 456.6L358.7 614.4L295.7 379.6Z" fill="#4faa6d" stroke="#4faa6d"></path><path d="M358.7 614.4L270.7 714.3L466.5 756.3Z" fill="#0f312a" stroke="#0f312a"></path><path d="M1790.2 891.1L1803.2 657.3L1665.3 713.3Z" fill="#4faa6d" stroke="#4faa6d"></path><path d="M1732.3 418.6L1867.2 297.7L1646.3 320.7Z" fill="#0f312a" stroke="#0f312a"></path><path d="M1803.2 657.3L1822.2 608.4L1646.3 618.4Z" fill="#3d9564" stroke="#3d9564"></path><path d="M206.8 122.9L250.7 200.9L443.5 132.9Z" fill="#0f312a" stroke="#0f312a"></path><path d="M279.7 343.7L184.8 456.6L295.7 379.6Z" fill="#0f312a" stroke="#0f312a"></path><path d="M121.8 334.7L184.8 456.6L279.7 343.7Z" fill="#7ad57a" stroke="#7ad57a"></path><path d="M207.8 728.3L272.7 879.1L270.7 714.3Z" fill="#0c201c" stroke="#0c201c"></path><path d="M270.7 714.3L272.7 879.1L466.5 756.3Z" fill="#7ad57a" stroke="#7ad57a"></path><path d="M175.8 598.4L207.8 728.3L270.7 714.3Z" fill="#195744" stroke="#195744"></path><path d="M184.8 456.6L175.8 598.4L358.7 614.4Z" fill="#2e805b" stroke="#2e805b"></path><path d="M1901.2 478.6L1867.2 297.7L1732.3 418.6Z" fill="#2e805b" stroke="#2e805b"></path><path d="M1647.3 883.1L1790.2 891.1L1665.3 713.3Z" fill="#2e805b" stroke="#2e805b"></path><path d="M1803.2 657.3L2000 623.4L1822.2 608.4Z" fill="#7ad57a" stroke="#7ad57a"></path><path d="M1822.2 608.4L1901.2 478.6L1732.3 418.6Z" fill="#134438" stroke="#134438"></path><path d="M1729.3 1000L1790.2 891.1L1647.3 883.1Z" fill="#226b50" stroke="#226b50"></path><path d="M2000 623.4L1901.2 478.6L1822.2 608.4Z" fill="#3d9564" stroke="#3d9564"></path><path d="M1867.2 297.7L1828.2 115.9L1669.3 134.9Z" fill="#134438" stroke="#134438"></path><path d="M1521.5 1000L1729.3 1000L1647.3 883.1Z" fill="#226b50" stroke="#226b50"></path><path d="M250.7 200.9L121.8 334.7L279.7 343.7Z" fill="#3d9564" stroke="#3d9564"></path><path d="M248.7 0L206.8 122.9L443.5 132.9Z" fill="#134438" stroke="#134438"></path><path d="M1828.2 115.9L1793.2 0L1669.3 134.9Z" fill="#63bf74" stroke="#63bf74"></path><path d="M444.5 0L248.7 0L443.5 132.9Z" fill="#195744" stroke="#195744"></path><path d="M272.7 879.1L285.7 1000L473.5 1000Z" fill="#134438" stroke="#134438"></path><path d="M167.8 1000L285.7 1000L272.7 879.1Z" fill="#195744" stroke="#195744"></path><path d="M0 285.7L121.8 334.7L206.8 122.9Z" fill="#4faa6d" stroke="#4faa6d"></path><path d="M206.8 122.9L121.8 334.7L250.7 200.9Z" fill="#3d9564" stroke="#3d9564"></path><path d="M184.8 456.6L0 603.4L175.8 598.4Z" fill="#226b50" stroke="#226b50"></path><path d="M1901.2 478.6L2000 373.6L1867.2 297.7Z" fill="#195744" stroke="#195744"></path><path d="M1867.2 297.7L2000 96.9L1828.2 115.9Z" fill="#63bf74" stroke="#63bf74"></path><path d="M1828.2 115.9L2000 0L1793.2 0Z" fill="#2e805b" stroke="#2e805b"></path><path d="M2000 623.4L2000 373.6L1901.2 478.6Z" fill="#134438" stroke="#134438"></path><path d="M2000 373.6L2000 316.7L1867.2 297.7Z" fill="#7ad57a" stroke="#7ad57a"></path><path d="M2000 763.3L2000 623.4L1803.2 657.3Z" fill="#3d9564" stroke="#3d9564"></path><path d="M2000 763.3L1803.2 657.3L1790.2 891.1Z" fill="#0c201c" stroke="#0c201c"></path><path d="M0 740.3L97.8 830.1L207.8 728.3Z" fill="#134438" stroke="#134438"></path><path d="M207.8 728.3L97.8 830.1L272.7 879.1Z" fill="#0f312a" stroke="#0f312a"></path><path d="M0 740.3L207.8 728.3L175.8 598.4Z" fill="#2e805b" stroke="#2e805b"></path><path d="M248.7 0L145.8 0L206.8 122.9Z" fill="#0f312a" stroke="#0f312a"></path><path d="M97.8 830.1L167.8 1000L272.7 879.1Z" fill="#134438" stroke="#134438"></path><path d="M1729.3 1000L1879.2 1000L1790.2 891.1Z" fill="#63bf74" stroke="#63bf74"></path><path d="M2000 803.1L2000 763.3L1790.2 891.1Z" fill="#2e805b" stroke="#2e805b"></path><path d="M0 285.7L0 416.6L121.8 334.7Z" fill="#63bf74" stroke="#63bf74"></path><path d="M121.8 334.7L0 416.6L184.8 456.6Z" fill="#63bf74" stroke="#63bf74"></path><path d="M0 416.6L0 603.4L184.8 456.6Z" fill="#7ad57a" stroke="#7ad57a"></path><path d="M97.8 830.1L0 1000L167.8 1000Z" fill="#195744" stroke="#195744"></path><path d="M1879.2 1000L2000 803.1L1790.2 891.1Z" fill="#4faa6d" stroke="#4faa6d"></path><path d="M0 87.9L0 285.7L206.8 122.9Z" fill="#0f312a" stroke="#0f312a"></path><path d="M2000 316.7L2000 96.9L1867.2 297.7Z" fill="#000d0b" stroke="#000d0b"></path><path d="M0 603.4L0 740.3L175.8 598.4Z" fill="#195744" stroke="#195744"></path><path d="M0 740.3L0 816.1L97.8 830.1Z" fill="#2e805b" stroke="#2e805b"></path><path d="M2000 96.9L2000 0L1828.2 115.9Z" fill="#0c201c" stroke="#0c201c"></path><path d="M145.8 0L0 87.9L206.8 122.9Z" fill="#0f312a" stroke="#0f312a"></path><path d="M1879.2 1000L2000 1000L2000 803.1Z" fill="#0f312a" stroke="#0f312a"></path><path d="M145.8 0L0 0L0 87.9Z" fill="#3d9564" stroke="#3d9564"></path><path d="M0 816.1L0 1000L97.8 830.1Z" fill="#000d0b" stroke="#000d0b"></path></g></svg>