<svg id="visual" viewBox="0 0 1410 1000" width="1410" height="1000" xmlns="http://www.w3.org/2000/svg" xmlns:xlink="http://www.w3.org/1999/xlink" version="1.1"><g><g transform="translate(1266 319)"><path d="M0 -115.4L100 -57.7L100 57.7L0 115.4L-100 57.7L-100 -57.7Z" fill="#49c48e"></path></g><g transform="translate(792 474)"><path d="M0 -43L37.2 -21.5L37.2 21.5L0 43L-37.2 21.5L-37.2 -21.5Z" fill="#49c48e"></path></g><g transform="translate(48 262)"><path d="M0 -65L56.3 -32.5L56.3 32.5L0 65L-56.3 32.5L-56.3 -32.5Z" fill="#49c48e"></path></g><g transform="translate(379 298)"><path d="M0 -66L57.2 -33L57.2 33L0 66L-57.2 33L-57.2 -33Z" fill="#49c48e"></path></g><g transform="translate(240 923)"><path d="M0 -72L62.4 -36L62.4 36L0 72L-62.4 36L-62.4 -36Z" fill="#49c48e"></path></g><g transform="translate(914 51)"><path d="M0 -73L63.2 -36.5L63.2 36.5L0 73L-63.2 36.5L-63.2 -36.5Z" fill="#49c48e"></path></g><g transform="translate(621 656)"><path d="M0 -65L56.3 -32.5L56.3 32.5L0 65L-56.3 32.5L-56.3 -32.5Z" fill="#49c48e"></path></g><g transform="translate(1219 841)"><path d="M0 -88L76.2 -44L76.2 44L0 88L-76.2 44L-76.2 -44Z" fill="#49c48e"></path></g><g transform="translate(503 931)"><path d="M0 -79L68.4 -39.5L68.4 39.5L0 79L-68.4 39.5L-68.4 -39.5Z" fill="#49c48e"></path></g></g></svg>