<svg id="visual" viewBox="0 0 1500 500" width="1500" height="500" xmlns="http://www.w3.org/2000/svg" xmlns:xlink="http://www.w3.org/1999/xlink" version="1.1"><g stroke-width="1" stroke-linejoin="bevel"><path d="M756 221L820.3 178.7L763 149.7Z" fill="#2e1e3a" stroke="#2e1e3a"></path><path d="M756 221L863.3 223L820.3 178.7Z" fill="#d666ff" stroke="#d666ff"></path><path d="M863.3 223L853.3 111.3L820.3 178.7Z" fill="#653a80" stroke="#653a80"></path><path d="M820.3 178.7L853.3 111.3L763 149.7Z" fill="#1e1525" stroke="#1e1525"></path><path d="M756 221L776 307.3L863.3 223Z" fill="#653a80" stroke="#653a80"></path><path d="M853.3 111.3L760 68.3L763 149.7Z" fill="#a655cb" stroke="#a655cb"></path><path d="M763 149.7L653.7 197.7L756 221Z" fill="#653a80" stroke="#653a80"></path><path d="M667.7 73.3L653.7 197.7L763 149.7Z" fill="#8f4cb2" stroke="#8f4cb2"></path><path d="M756 221L672.7 335.3L776 307.3Z" fill="#7a4399" stroke="#7a4399"></path><path d="M776 307.3L844.3 312.3L863.3 223Z" fill="#0d0810" stroke="#0d0810"></path><path d="M844.3 312.3L922.7 247L863.3 223Z" fill="#8f4cb2" stroke="#8f4cb2"></path><path d="M863.3 223L944.7 180.7L853.3 111.3Z" fill="#d666ff" stroke="#d666ff"></path><path d="M760 68.3L667.7 73.3L763 149.7Z" fill="#523168" stroke="#523168"></path><path d="M922.7 247L944.7 180.7L863.3 223Z" fill="#d666ff" stroke="#d666ff"></path><path d="M563.3 216L635.7 268L653.7 197.7Z" fill="#3f2851" stroke="#3f2851"></path><path d="M653.7 197.7L635.7 268L756 221Z" fill="#2e1e3a" stroke="#2e1e3a"></path><path d="M635.7 268L672.7 335.3L756 221Z" fill="#7a4399" stroke="#7a4399"></path><path d="M776 307.3L778 397.7L844.3 312.3Z" fill="#3f2851" stroke="#3f2851"></path><path d="M886.7 0L801.3 0L853.3 111.3Z" fill="#523168" stroke="#523168"></path><path d="M853.3 111.3L801.3 0L760 68.3Z" fill="#0d0810" stroke="#0d0810"></path><path d="M760 68.3L718 0L667.7 73.3Z" fill="#7a4399" stroke="#7a4399"></path><path d="M801.3 0L718 0L760 68.3Z" fill="#d666ff" stroke="#d666ff"></path><path d="M967 109.3L932.7 55.3L853.3 111.3Z" fill="#1e1525" stroke="#1e1525"></path><path d="M944.7 180.7L967 109.3L853.3 111.3Z" fill="#d666ff" stroke="#d666ff"></path><path d="M672.7 335.3L778 397.7L776 307.3Z" fill="#1e1525" stroke="#1e1525"></path><path d="M844.3 312.3L912.7 364.3L922.7 247Z" fill="#d666ff" stroke="#d666ff"></path><path d="M932.7 55.3L886.7 0L853.3 111.3Z" fill="#7a4399" stroke="#7a4399"></path><path d="M593.3 60.3L653.7 197.7L667.7 73.3Z" fill="#1e1525" stroke="#1e1525"></path><path d="M550.3 176.7L563.3 216L653.7 197.7Z" fill="#bd5ee5" stroke="#bd5ee5"></path><path d="M635.7 268L588.3 328.3L672.7 335.3Z" fill="#7a4399" stroke="#7a4399"></path><path d="M817.3 438.7L912.7 364.3L844.3 312.3Z" fill="#523168" stroke="#523168"></path><path d="M1082.3 192.7L1013 133.7L944.7 180.7Z" fill="#0d0810" stroke="#0d0810"></path><path d="M944.7 180.7L1013 133.7L967 109.3Z" fill="#bd5ee5" stroke="#bd5ee5"></path><path d="M644.7 0L593.3 60.3L667.7 73.3Z" fill="#1e1525" stroke="#1e1525"></path><path d="M593.3 60.3L550.3 176.7L653.7 197.7Z" fill="#2e1e3a" stroke="#2e1e3a"></path><path d="M718 0L644.7 0L667.7 73.3Z" fill="#d666ff" stroke="#d666ff"></path><path d="M530 249L588.3 328.3L635.7 268Z" fill="#8f4cb2" stroke="#8f4cb2"></path><path d="M672.7 335.3L648.7 387.7L778 397.7Z" fill="#523168" stroke="#523168"></path><path d="M530 249L635.7 268L563.3 216Z" fill="#523168" stroke="#523168"></path><path d="M1026 276L944.7 180.7L922.7 247Z" fill="#653a80" stroke="#653a80"></path><path d="M967 109.3L1004 0L932.7 55.3Z" fill="#0d0810" stroke="#0d0810"></path><path d="M932.7 55.3L1004 0L886.7 0Z" fill="#0d0810" stroke="#0d0810"></path><path d="M588.3 328.3L648.7 387.7L672.7 335.3Z" fill="#653a80" stroke="#653a80"></path><path d="M804.3 500L817.3 438.7L716 500Z" fill="#a655cb" stroke="#a655cb"></path><path d="M778 397.7L817.3 438.7L844.3 312.3Z" fill="#d666ff" stroke="#d666ff"></path><path d="M997 392.7L989 334.3L912.7 364.3Z" fill="#2e1e3a" stroke="#2e1e3a"></path><path d="M912.7 364.3L989 334.3L922.7 247Z" fill="#8f4cb2" stroke="#8f4cb2"></path><path d="M512 182.7L530 249L563.3 216Z" fill="#bd5ee5" stroke="#bd5ee5"></path><path d="M989 334.3L1026 276L922.7 247Z" fill="#0d0810" stroke="#0d0810"></path><path d="M483 51.3L512 182.7L550.3 176.7Z" fill="#653a80" stroke="#653a80"></path><path d="M550.3 176.7L512 182.7L563.3 216Z" fill="#bd5ee5" stroke="#bd5ee5"></path><path d="M644.7 0L586.3 0L593.3 60.3Z" fill="#523168" stroke="#523168"></path><path d="M593.3 60.3L483 51.3L550.3 176.7Z" fill="#d666ff" stroke="#d666ff"></path><path d="M817.3 438.7L914.7 425.7L912.7 364.3Z" fill="#7a4399" stroke="#7a4399"></path><path d="M1105.3 88.3L1004 0L1013 133.7Z" fill="#3f2851" stroke="#3f2851"></path><path d="M1013 133.7L1004 0L967 109.3Z" fill="#bd5ee5" stroke="#bd5ee5"></path><path d="M914.7 425.7L997 392.7L912.7 364.3Z" fill="#3f2851" stroke="#3f2851"></path><path d="M989 334.3L1097.3 303.3L1026 276Z" fill="#0d0810" stroke="#0d0810"></path><path d="M1116.3 256L1082.3 192.7L1026 276Z" fill="#a655cb" stroke="#a655cb"></path><path d="M1026 276L1082.3 192.7L944.7 180.7Z" fill="#2e1e3a" stroke="#2e1e3a"></path><path d="M588.3 328.3L577.3 417.7L648.7 387.7Z" fill="#3f2851" stroke="#3f2851"></path><path d="M716 500L817.3 438.7L778 397.7Z" fill="#7a4399" stroke="#7a4399"></path><path d="M493 356.3L577.3 417.7L588.3 328.3Z" fill="#7a4399" stroke="#7a4399"></path><path d="M716 500L778 397.7L648.7 387.7Z" fill="#8f4cb2" stroke="#8f4cb2"></path><path d="M817.3 438.7L935.7 500L914.7 425.7Z" fill="#2e1e3a" stroke="#2e1e3a"></path><path d="M914.7 425.7L1005 500L997 392.7Z" fill="#523168" stroke="#523168"></path><path d="M671.7 500L716 500L648.7 387.7Z" fill="#523168" stroke="#523168"></path><path d="M586.3 0L520 0L593.3 60.3Z" fill="#653a80" stroke="#653a80"></path><path d="M520 0L483 51.3L593.3 60.3Z" fill="#bd5ee5" stroke="#bd5ee5"></path><path d="M606.3 500L671.7 500L648.7 387.7Z" fill="#7a4399" stroke="#7a4399"></path><path d="M530 249L493 356.3L588.3 328.3Z" fill="#523168" stroke="#523168"></path><path d="M577.3 417.7L606.3 500L648.7 387.7Z" fill="#523168" stroke="#523168"></path><path d="M444.7 277L493 356.3L530 249Z" fill="#8f4cb2" stroke="#8f4cb2"></path><path d="M444.7 277L530 249L512 182.7Z" fill="#0d0810" stroke="#0d0810"></path><path d="M997 392.7L1097.3 303.3L989 334.3Z" fill="#0d0810" stroke="#0d0810"></path><path d="M483 51.3L444.7 139.7L512 182.7Z" fill="#7a4399" stroke="#7a4399"></path><path d="M1137.7 65.3L1105.3 88.3L1199.7 150.7Z" fill="#8f4cb2" stroke="#8f4cb2"></path><path d="M1082.3 192.7L1105.3 88.3L1013 133.7Z" fill="#bd5ee5" stroke="#bd5ee5"></path><path d="M1097.3 303.3L1116.3 256L1026 276Z" fill="#8f4cb2" stroke="#8f4cb2"></path><path d="M444.7 139.7L444.7 277L512 182.7Z" fill="#1e1525" stroke="#1e1525"></path><path d="M804.3 500L935.7 500L817.3 438.7Z" fill="#a655cb" stroke="#a655cb"></path><path d="M997 392.7L1090.3 434.7L1097.3 303.3Z" fill="#523168" stroke="#523168"></path><path d="M512 500L606.3 500L577.3 417.7Z" fill="#d666ff" stroke="#d666ff"></path><path d="M357.3 345.3L439.7 315.3L444.7 277Z" fill="#1e1525" stroke="#1e1525"></path><path d="M444.7 277L439.7 315.3L493 356.3Z" fill="#1e1525" stroke="#1e1525"></path><path d="M493 356.3L502 439.7L577.3 417.7Z" fill="#bd5ee5" stroke="#bd5ee5"></path><path d="M430.7 408.7L502 439.7L493 356.3Z" fill="#0d0810" stroke="#0d0810"></path><path d="M1199.7 150.7L1105.3 88.3L1082.3 192.7Z" fill="#3f2851" stroke="#3f2851"></path><path d="M1105.3 88.3L1109.3 0L1004 0Z" fill="#7a4399" stroke="#7a4399"></path><path d="M1137.7 65.3L1109.3 0L1105.3 88.3Z" fill="#8f4cb2" stroke="#8f4cb2"></path><path d="M935.7 500L1005 500L914.7 425.7Z" fill="#1e1525" stroke="#1e1525"></path><path d="M1161.7 322.3L1171.7 237L1116.3 256Z" fill="#653a80" stroke="#653a80"></path><path d="M1116.3 256L1171.7 237L1082.3 192.7Z" fill="#3f2851" stroke="#3f2851"></path><path d="M1161.7 322.3L1116.3 256L1097.3 303.3Z" fill="#d666ff" stroke="#d666ff"></path><path d="M1005 500L1090.3 434.7L997 392.7Z" fill="#7a4399" stroke="#7a4399"></path><path d="M1090.3 434.7L1161.7 322.3L1097.3 303.3Z" fill="#7a4399" stroke="#7a4399"></path><path d="M483 51.3L388.7 79.3L444.7 139.7Z" fill="#7a4399" stroke="#7a4399"></path><path d="M444.7 139.7L334.3 151.7L444.7 277Z" fill="#2e1e3a" stroke="#2e1e3a"></path><path d="M399.7 0L388.7 79.3L483 51.3Z" fill="#d666ff" stroke="#d666ff"></path><path d="M405.7 500L512 500L502 439.7Z" fill="#7a4399" stroke="#7a4399"></path><path d="M502 439.7L512 500L577.3 417.7Z" fill="#7a4399" stroke="#7a4399"></path><path d="M439.7 315.3L430.7 408.7L493 356.3Z" fill="#3f2851" stroke="#3f2851"></path><path d="M357.3 345.3L430.7 408.7L439.7 315.3Z" fill="#3f2851" stroke="#3f2851"></path><path d="M1171.7 237L1199.7 150.7L1082.3 192.7Z" fill="#1e1525" stroke="#1e1525"></path><path d="M1137.7 65.3L1199.7 0L1109.3 0Z" fill="#bd5ee5" stroke="#bd5ee5"></path><path d="M1253 219L1199.7 150.7L1171.7 237Z" fill="#7a4399" stroke="#7a4399"></path><path d="M520 0L399.7 0L483 51.3Z" fill="#523168" stroke="#523168"></path><path d="M1005 500L1070.3 500L1090.3 434.7Z" fill="#d666ff" stroke="#d666ff"></path><path d="M1090.3 434.7L1171.7 447.7L1161.7 322.3Z" fill="#1e1525" stroke="#1e1525"></path><path d="M299.3 53.3L334.3 151.7L388.7 79.3Z" fill="#2e1e3a" stroke="#2e1e3a"></path><path d="M388.7 79.3L334.3 151.7L444.7 139.7Z" fill="#523168" stroke="#523168"></path><path d="M304.3 243L357.3 345.3L444.7 277Z" fill="#7a4399" stroke="#7a4399"></path><path d="M430.7 408.7L405.7 500L502 439.7Z" fill="#523168" stroke="#523168"></path><path d="M1216 0L1199.7 0L1137.7 65.3Z" fill="#2e1e3a" stroke="#2e1e3a"></path><path d="M1138.7 500L1171.7 447.7L1090.3 434.7Z" fill="#7a4399" stroke="#7a4399"></path><path d="M1247 337.3L1253 219L1171.7 237Z" fill="#a655cb" stroke="#a655cb"></path><path d="M399.7 0L348.3 0L388.7 79.3Z" fill="#523168" stroke="#523168"></path><path d="M1247 337.3L1171.7 237L1161.7 322.3Z" fill="#653a80" stroke="#653a80"></path><path d="M1272 103.3L1216 0L1137.7 65.3Z" fill="#bd5ee5" stroke="#bd5ee5"></path><path d="M1272 103.3L1137.7 65.3L1199.7 150.7Z" fill="#a655cb" stroke="#a655cb"></path><path d="M1070.3 500L1138.7 500L1090.3 434.7Z" fill="#2e1e3a" stroke="#2e1e3a"></path><path d="M334.3 151.7L304.3 243L444.7 277Z" fill="#2e1e3a" stroke="#2e1e3a"></path><path d="M232 172.7L304.3 243L334.3 151.7Z" fill="#3f2851" stroke="#3f2851"></path><path d="M1253 219L1263 188.7L1199.7 150.7Z" fill="#a655cb" stroke="#a655cb"></path><path d="M321.3 430.7L430.7 408.7L357.3 345.3Z" fill="#a655cb" stroke="#a655cb"></path><path d="M365.3 500L405.7 500L430.7 408.7Z" fill="#1e1525" stroke="#1e1525"></path><path d="M1243 396.7L1247 337.3L1161.7 322.3Z" fill="#8f4cb2" stroke="#8f4cb2"></path><path d="M1253 219L1306.3 171.7L1263 188.7Z" fill="#a655cb" stroke="#a655cb"></path><path d="M1243 396.7L1161.7 322.3L1171.7 447.7Z" fill="#523168" stroke="#523168"></path><path d="M348.3 0L299.3 53.3L388.7 79.3Z" fill="#8f4cb2" stroke="#8f4cb2"></path><path d="M1263 188.7L1272 103.3L1199.7 150.7Z" fill="#d666ff" stroke="#d666ff"></path><path d="M1340.3 252L1306.3 171.7L1253 219Z" fill="#3f2851" stroke="#3f2851"></path><path d="M1263 188.7L1306.3 171.7L1272 103.3Z" fill="#d666ff" stroke="#d666ff"></path><path d="M1217 500L1243 396.7L1171.7 447.7Z" fill="#1e1525" stroke="#1e1525"></path><path d="M236 402.7L321.3 430.7L357.3 345.3Z" fill="#d666ff" stroke="#d666ff"></path><path d="M321.3 430.7L365.3 500L430.7 408.7Z" fill="#7a4399" stroke="#7a4399"></path><path d="M1340.3 252L1253 219L1247 337.3Z" fill="#0d0810" stroke="#0d0810"></path><path d="M258 0L261 68.3L299.3 53.3Z" fill="#653a80" stroke="#653a80"></path><path d="M299.3 53.3L261 68.3L334.3 151.7Z" fill="#8f4cb2" stroke="#8f4cb2"></path><path d="M304.3 243L227 363.3L357.3 345.3Z" fill="#653a80" stroke="#653a80"></path><path d="M1138.7 500L1217 500L1171.7 447.7Z" fill="#3f2851" stroke="#3f2851"></path><path d="M1351.3 322.3L1340.3 252L1247 337.3Z" fill="#3f2851" stroke="#3f2851"></path><path d="M261 68.3L232 172.7L334.3 151.7Z" fill="#d666ff" stroke="#d666ff"></path><path d="M1394.7 113.3L1316.3 51.3L1272 103.3Z" fill="#a655cb" stroke="#a655cb"></path><path d="M1272 103.3L1316.3 51.3L1216 0Z" fill="#523168" stroke="#523168"></path><path d="M1316.3 51.3L1301.3 0L1216 0Z" fill="#bd5ee5" stroke="#bd5ee5"></path><path d="M348.3 0L258 0L299.3 53.3Z" fill="#a655cb" stroke="#a655cb"></path><path d="M261 68.3L198.7 170.7L232 172.7Z" fill="#a655cb" stroke="#a655cb"></path><path d="M232 172.7L225 246L304.3 243Z" fill="#2e1e3a" stroke="#2e1e3a"></path><path d="M1314.3 412.7L1247 337.3L1243 396.7Z" fill="#1e1525" stroke="#1e1525"></path><path d="M1306.3 171.7L1394.7 113.3L1272 103.3Z" fill="#bd5ee5" stroke="#bd5ee5"></path><path d="M1217 500L1314.3 412.7L1243 396.7Z" fill="#bd5ee5" stroke="#bd5ee5"></path><path d="M225 246L227 363.3L304.3 243Z" fill="#653a80" stroke="#653a80"></path><path d="M321.3 430.7L262 500L365.3 500Z" fill="#2e1e3a" stroke="#2e1e3a"></path><path d="M152.7 56.3L198.7 170.7L261 68.3Z" fill="#2e1e3a" stroke="#2e1e3a"></path><path d="M232 172.7L198.7 170.7L225 246Z" fill="#653a80" stroke="#653a80"></path><path d="M225 246L173.7 324.3L227 363.3Z" fill="#0d0810" stroke="#0d0810"></path><path d="M227 363.3L236 402.7L357.3 345.3Z" fill="#a655cb" stroke="#a655cb"></path><path d="M1314.3 412.7L1351.3 322.3L1247 337.3Z" fill="#3f2851" stroke="#3f2851"></path><path d="M1428.7 151.7L1394.7 113.3L1306.3 171.7Z" fill="#3f2851" stroke="#3f2851"></path><path d="M236 402.7L262 500L321.3 430.7Z" fill="#d666ff" stroke="#d666ff"></path><path d="M258 0L197.7 0L261 68.3Z" fill="#2e1e3a" stroke="#2e1e3a"></path><path d="M1404.7 248L1306.3 171.7L1340.3 252Z" fill="#8f4cb2" stroke="#8f4cb2"></path><path d="M1316.3 51.3L1394.7 0L1301.3 0Z" fill="#bd5ee5" stroke="#bd5ee5"></path><path d="M227 363.3L149.7 426.7L236 402.7Z" fill="#1e1525" stroke="#1e1525"></path><path d="M236 402.7L171.7 500L262 500Z" fill="#653a80" stroke="#653a80"></path><path d="M198.7 170.7L167.7 280L225 246Z" fill="#bd5ee5" stroke="#bd5ee5"></path><path d="M104.3 228L167.7 280L198.7 170.7Z" fill="#bd5ee5" stroke="#bd5ee5"></path><path d="M167.7 280L173.7 324.3L225 246Z" fill="#2e1e3a" stroke="#2e1e3a"></path><path d="M1422.7 342.3L1404.7 248L1351.3 322.3Z" fill="#653a80" stroke="#653a80"></path><path d="M1351.3 322.3L1404.7 248L1340.3 252Z" fill="#1e1525" stroke="#1e1525"></path><path d="M197.7 0L152.7 56.3L261 68.3Z" fill="#0d0810" stroke="#0d0810"></path><path d="M1500 93.3L1394.7 0L1394.7 113.3Z" fill="#3f2851" stroke="#3f2851"></path><path d="M1394.7 113.3L1394.7 0L1316.3 51.3Z" fill="#a655cb" stroke="#a655cb"></path><path d="M1217 500L1343.3 500L1314.3 412.7Z" fill="#653a80" stroke="#653a80"></path><path d="M1314.3 412.7L1422.7 342.3L1351.3 322.3Z" fill="#bd5ee5" stroke="#bd5ee5"></path><path d="M1404.7 248L1428.7 151.7L1306.3 171.7Z" fill="#3f2851" stroke="#3f2851"></path><path d="M1500 174.7L1428.7 151.7L1500 233Z" fill="#1e1525" stroke="#1e1525"></path><path d="M1446.7 431.7L1422.7 342.3L1314.3 412.7Z" fill="#bd5ee5" stroke="#bd5ee5"></path><path d="M104.3 350.3L173.7 324.3L167.7 280Z" fill="#a655cb" stroke="#a655cb"></path><path d="M104.3 350.3L149.7 426.7L173.7 324.3Z" fill="#1e1525" stroke="#1e1525"></path><path d="M173.7 324.3L149.7 426.7L227 363.3Z" fill="#d666ff" stroke="#d666ff"></path><path d="M54.3 0L110.3 101.3L152.7 56.3Z" fill="#a655cb" stroke="#a655cb"></path><path d="M152.7 56.3L110.3 101.3L198.7 170.7Z" fill="#7a4399" stroke="#7a4399"></path><path d="M85.3 146.7L104.3 228L198.7 170.7Z" fill="#2e1e3a" stroke="#2e1e3a"></path><path d="M149.7 426.7L171.7 500L236 402.7Z" fill="#a655cb" stroke="#a655cb"></path><path d="M104.3 228L104.3 350.3L167.7 280Z" fill="#a655cb" stroke="#a655cb"></path><path d="M149.7 426.7L88.3 448.7L171.7 500Z" fill="#3f2851" stroke="#3f2851"></path><path d="M110.3 101.3L85.3 146.7L198.7 170.7Z" fill="#3f2851" stroke="#3f2851"></path><path d="M104.3 228L0 338.3L104.3 350.3Z" fill="#0d0810" stroke="#0d0810"></path><path d="M1343.3 500L1446.7 431.7L1314.3 412.7Z" fill="#523168" stroke="#523168"></path><path d="M1500 233L1428.7 151.7L1404.7 248Z" fill="#bd5ee5" stroke="#bd5ee5"></path><path d="M1500 233L1404.7 248L1500 300.3Z" fill="#0d0810" stroke="#0d0810"></path><path d="M1428.7 151.7L1500 93.3L1394.7 113.3Z" fill="#a655cb" stroke="#a655cb"></path><path d="M1500 300.3L1404.7 248L1422.7 342.3Z" fill="#1e1525" stroke="#1e1525"></path><path d="M1343.3 500L1432.7 500L1446.7 431.7Z" fill="#bd5ee5" stroke="#bd5ee5"></path><path d="M1500 385.7L1500 300.3L1422.7 342.3Z" fill="#653a80" stroke="#653a80"></path><path d="M1500 174.7L1500 93.3L1428.7 151.7Z" fill="#7a4399" stroke="#7a4399"></path><path d="M1500 385.7L1422.7 342.3L1446.7 431.7Z" fill="#a655cb" stroke="#a655cb"></path><path d="M0 413.7L88.3 448.7L104.3 350.3Z" fill="#2e1e3a" stroke="#2e1e3a"></path><path d="M104.3 350.3L88.3 448.7L149.7 426.7Z" fill="#d666ff" stroke="#d666ff"></path><path d="M1500 93.3L1500 0L1394.7 0Z" fill="#653a80" stroke="#653a80"></path><path d="M1500 500L1500 385.7L1446.7 431.7Z" fill="#8f4cb2" stroke="#8f4cb2"></path><path d="M110.3 101.3L0 51.3L85.3 146.7Z" fill="#7a4399" stroke="#7a4399"></path><path d="M85.3 146.7L0 182.7L104.3 228Z" fill="#a655cb" stroke="#a655cb"></path><path d="M197.7 0L54.3 0L152.7 56.3Z" fill="#7a4399" stroke="#7a4399"></path><path d="M0 51.3L0 182.7L85.3 146.7Z" fill="#a655cb" stroke="#a655cb"></path><path d="M0 182.7L0 236L104.3 228Z" fill="#523168" stroke="#523168"></path><path d="M1432.7 500L1500 500L1446.7 431.7Z" fill="#2e1e3a" stroke="#2e1e3a"></path><path d="M0 413.7L54.3 500L88.3 448.7Z" fill="#1e1525" stroke="#1e1525"></path><path d="M88.3 448.7L54.3 500L171.7 500Z" fill="#7a4399" stroke="#7a4399"></path><path d="M54.3 0L0 51.3L110.3 101.3Z" fill="#7a4399" stroke="#7a4399"></path><path d="M0 236L0 338.3L104.3 228Z" fill="#523168" stroke="#523168"></path><path d="M54.3 0L0 0L0 51.3Z" fill="#1e1525" stroke="#1e1525"></path><path d="M0 338.3L0 413.7L104.3 350.3Z" fill="#d666ff" stroke="#d666ff"></path><path d="M0 413.7L0 500L54.3 500Z" fill="#a655cb" stroke="#a655cb"></path></g></svg>