<svg id="visual" viewBox="0 0 900 600" width="900" height="600" xmlns="http://www.w3.org/2000/svg" xmlns:xlink="http://www.w3.org/1999/xlink" version="1.1"><g><g transform="translate(574 99)"><path d="M0 -100.4L86.9 -50.2L86.9 50.2L0 100.4L-86.9 50.2L-86.9 -50.2Z" fill="#4f859e"></path></g><g transform="translate(22 487)"><path d="M0 -79L68.4 -39.5L68.4 39.5L0 79L-68.4 39.5L-68.4 -39.5Z" fill="#4f859e"></path></g><g transform="translate(420 463)"><path d="M0 -65L56.3 -32.5L56.3 32.5L0 65L-56.3 32.5L-56.3 -32.5Z" fill="#4f859e"></path></g><g transform="translate(318 94)"><path d="M0 -80L69.3 -40L69.3 40L0 80L-69.3 40L-69.3 -40Z" fill="#4f859e"></path></g><g transform="translate(723 321)"><path d="M0 -98L84.9 -49L84.9 49L0 98L-84.9 49L-84.9 -49Z" fill="#4f859e"></path></g><g transform="translate(112 278)"><path d="M0 -93L80.5 -46.5L80.5 46.5L0 93L-80.5 46.5L-80.5 -46.5Z" fill="#4f859e"></path></g><g transform="translate(886 4)"><path d="M0 -80L69.3 -40L69.3 40L0 80L-69.3 40L-69.3 -40Z" fill="#4f859e"></path></g></g></svg>